<?xml version="1.0" encoding="UTF-8"?>
<svg id="Layer_1" data-name="Layer 1" xmlns="http://www.w3.org/2000/svg" viewBox="0 0 100 100">
  <defs>
    <style>
      .cls-1 {
        fill: #ee3e24;
      }
    </style>
  </defs>
  <path class="cls-1" d="M56.71,36c.17-.14,0-6,0-6l-3.13-2.77h-12.58v7.02l2.27,2.7,4.42,1.05,6.31-3.16,2.71,1.16Z"/>
  <polygon class="cls-1" points="65 65.02 73 65.02 73 72.46 69 73.47 65 72.54 65 65.02"/>
  <polygon class="cls-1" points="27.02 65.02 35.02 65.02 35.02 72.46 31.02 73.47 27.02 72.54 27.02 65.02"/>
  <g>
    <path d="M50,18c-13.23,0-24,10.77-24,24v29c0,1.65,1.35,3,3,3h1v1c0,.55.45,1,1,1s1-.45,1-1v-1h1c1.65,0,3-1.35,3-3v-1h28v1c0,1.65,1.35,3,3,3h1v1c0,.55.45,1,1,1s1-.45,1-1v-1h1c1.65,0,3-1.35,3-3v-29c0-13.23-10.77-24-24-24ZM50,20c12.13,0,22,9.87,22,22v22h-6v-22c0-4.44-1.87-8.71-5.12-11.73-.41-.38-1.04-.35-1.41.05-.38.4-.35,1.04.05,1.41,2.85,2.64,4.48,6.38,4.48,10.27v10.7c-1.94-2.77-5.13-4.6-8.74-4.68,1.68-1.47,2.74-3.62,2.74-6.01,1.65,0,3-1.35,3-3s-1.35-3-3-3v-5c0-1.35-.9-2.5-2.13-2.87-.37-1.23-1.52-2.13-2.87-2.13h-12c-.55,0-1,.45-1,1v6c0,1.2.44,2.28,1.14,3.14-1.23.37-2.14,1.51-2.14,2.86,0,1.65,1.35,3,3,3,0,2.4,1.07,4.55,2.74,6.01-3.61.08-6.8,1.91-8.74,4.68v-10.7c0-3.06.97-5.96,2.8-8.4.33-.44.24-1.07-.2-1.4-.44-.33-1.07-.24-1.4.2-2.09,2.79-3.2,6.11-3.2,9.6v22h-6v-22c0-12.13,9.87-22,22-22ZM44,42v-4.1c.32.07.66.1,1,.1h2.69c2.14,0,4.17-.74,5.79-2.11.52.97,1.44,1.69,2.52,1.98v4.13c0,3.31-2.69,6-6,6s-6-2.69-6-6ZM58,40v-2c.55,0,1,.45,1,1s-.45,1-1,1ZM56,35.73c-.6-.35-1-.99-1-1.73,0-.4-.24-.77-.62-.92s-.8-.07-1.09.22l-.66.66c-1.32,1.32-3.08,2.05-4.95,2.05h-2.69c-1.65,0-3-1.35-3-3v-5h11c.55,0,1,.45,1,1s.45,1,1,1,1,.45,1,1v4.73ZM42,38v2c-.55,0-1-.45-1-1s.45-1,1-1ZM34,71c0,.55-.45,1-1,1h-4c-.55,0-1-.45-1-1v-5h6v5ZM60,68v-11c0-.55-.45-1-1-1s-1,.45-1,1v11h-16v-11c0-.55-.45-1-1-1s-1,.45-1,1v11h-4v-9c0-4.96,4.04-9,9-9h10c4.96,0,9,4.04,9,9v9h-4ZM71,72h-4c-.55,0-1-.45-1-1v-5h6v5c0,.55-.45,1-1,1Z"/>
    <circle cx="47" cy="40" r="1"/>
    <circle cx="53" cy="40" r="1"/>
    <path d="M27,76c-.55,0-1,.45-1,1v2c0,.55.45,1,1,1s1-.45,1-1v-2c0-.55-.45-1-1-1Z"/>
    <path d="M35,76c-.55,0-1,.45-1,1v2c0,.55.45,1,1,1s1-.45,1-1v-2c0-.55-.45-1-1-1Z"/>
    <path d="M31,78c-.55,0-1,.45-1,1v2c0,.55.45,1,1,1s1-.45,1-1v-2c0-.55-.45-1-1-1Z"/>
    <path d="M65,76c-.55,0-1,.45-1,1v2c0,.55.45,1,1,1s1-.45,1-1v-2c0-.55-.45-1-1-1Z"/>
    <path d="M73,76c-.55,0-1,.45-1,1v2c0,.55.45,1,1,1s1-.45,1-1v-2c0-.55-.45-1-1-1Z"/>
    <path d="M69,78c-.55,0-1,.45-1,1v2c0,.55.45,1,1,1s1-.45,1-1v-2c0-.55-.45-1-1-1Z"/>
  </g>
</svg>