<?xml version="1.0" encoding="UTF-8"?>
<svg id="Layer_1" data-name="Layer 1" xmlns="http://www.w3.org/2000/svg" viewBox="0 0 100 100">
  <defs>
    <style>
      .cls-1 {
        fill: #ee3e24;
      }
    </style>
  </defs>
  <rect class="cls-1" x="35" y="31.77" width="10" height="5.73"/>
  <rect class="cls-1" x="55" y="44.14" width="10" height="5.73"/>
  <rect class="cls-1" x="35" y="56.14" width="10" height="5.73"/>
  <rect class="cls-1" x="55" y="68.14" width="10" height="5.73"/>
  <polygon class="cls-1" points="39.02 19.26 39.02 24 41.15 25.13 60 25.13 61.7 24.29 60.78 18.8 39.02 19.26"/>
  <g>
    <path d="M69,18H31c-2.76,0-5,2.24-5,5v54c0,2.76,2.24,5,5,5h38c2.76,0,5-2.24,5-5V23c0-2.76-2.24-5-5-5ZM62,25v2c0,.55-.45,1-1,1h-22c-.55,0-1-.45-1-1v-2c0-.28.12-.53.3-.71.48,1.01,1.51,1.71,2.7,1.71h18c1.19,0,2.21-.7,2.7-1.71.19.18.3.43.3.71ZM59,20c.55,0,1,.45,1,1v2c0,.55-.45,1-1,1h-18c-.55,0-1-.45-1-1v-2c0-.55.45-1,1-1h18ZM72,77c0,1.65-1.35,3-3,3H31c-1.65,0-3-1.35-3-3V23c0-1.65,1.35-3,3-3h7.18c-.11.31-.18.65-.18,1v1.18c-1.16.41-2,1.51-2,2.82v2c0,1.65,1.35,3,3,3h22c1.65,0,3-1.35,3-3v-2c0-1.3-.84-2.4-2-2.82v-1.18c0-.35-.07-.69-.18-1h7.18c1.65,0,3,1.35,3,3v54Z"/>
    <path d="M67,22h-2c-.55,0-1,.45-1,1s.45,1,1,1h2c.55,0,1,.45,1,1v50c0,.55-.45,1-1,1h-34c-.55,0-1-.45-1-1V25c0-.55.45-1,1-1h2c.55,0,1-.45,1-1s-.45-1-1-1h-2c-1.65,0-3,1.35-3,3v50c0,1.65,1.35,3,3,3h34c1.65,0,3-1.35,3-3V25c0-1.65-1.35-3-3-3Z"/>
    <path d="M34,34v2c0,1.65,1.35,3,3,3h6c1.65,0,3-1.35,3-3v-2c0-1.65-1.35-3-3-3h-6c-1.65,0-3,1.35-3,3ZM36,34c0-.55.45-1,1-1h6c.55,0,1,.45,1,1v2c0,.55-.45,1-1,1h-6c-.55,0-1-.45-1-1v-2Z"/>
    <path d="M57,43c-1.65,0-3,1.35-3,3v2c0,1.65,1.35,3,3,3h6c1.65,0,3-1.35,3-3v-2c0-1.65-1.35-3-3-3h-6ZM64,46v2c0,.55-.45,1-1,1h-6c-.55,0-1-.45-1-1v-2c0-.55.45-1,1-1h6c.55,0,1,.45,1,1Z"/>
    <path d="M37,55c-1.65,0-3,1.35-3,3v2c0,1.65,1.35,3,3,3h6c1.65,0,3-1.35,3-3v-2c0-1.65-1.35-3-3-3h-6ZM44,58v2c0,.55-.45,1-1,1h-6c-.55,0-1-.45-1-1v-2c0-.55.45-1,1-1h6c.55,0,1,.45,1,1Z"/>
    <path d="M57,75h6c1.65,0,3-1.35,3-3v-2c0-1.65-1.35-3-3-3h-6c-1.65,0-3,1.35-3,3v2c0,1.65,1.35,3,3,3ZM56,70c0-.55.45-1,1-1h6c.55,0,1,.45,1,1v2c0,.55-.45,1-1,1h-6c-.55,0-1-.45-1-1v-2Z"/>
    <path d="M48,36h11v1.59l-.29-.29c-.39-.39-1.02-.39-1.41,0s-.39,1.02,0,1.41l2,2c.2.2.45.29.71.29s.51-.1.71-.29l2-2c.39-.39.39-1.02,0-1.41s-1.02-.39-1.41,0l-.29.29v-2.59c0-.55-.45-1-1-1h-12c-.55,0-1,.45-1,1s.45,1,1,1Z"/>
    <path d="M48,60h11v1.59l-.29-.29c-.39-.39-1.02-.39-1.41,0s-.39,1.02,0,1.41l2,2c.2.2.45.29.71.29s.51-.1.71-.29l2-2c.39-.39.39-1.02,0-1.41s-1.02-.39-1.41,0l-.29.29v-2.59c0-.55-.45-1-1-1h-12c-.55,0-1,.45-1,1s.45,1,1,1Z"/>
    <path d="M53,47c0-.55-.45-1-1-1h-12c-.55,0-1,.45-1,1v2.59l-.29-.29c-.39-.39-1.02-.39-1.41,0s-.39,1.02,0,1.41l2,2c.2.2.45.29.71.29s.51-.1.71-.29l2-2c.39-.39.39-1.02,0-1.41s-1.02-.39-1.41,0l-.29.29v-1.59h11c.55,0,1-.45,1-1Z"/>
  </g>
</svg>