<?xml version="1.0" encoding="UTF-8"?>
<svg id="Layer_1" data-name="Layer 1" xmlns="http://www.w3.org/2000/svg" viewBox="0 0 100 100">
  <defs>
    <style>
      .cls-1 {
        fill: #ee3e24;
      }
    </style>
  </defs>
  <rect class="cls-1" x="44.49" y="66.18" width="11.49" height="3.36"/>
  <circle class="cls-1" cx="50.24" cy="56.16" r="3.06"/>
  <g>
    <path d="M79,26H21c-1.65,0-3,1.35-3,3v42c0,1.65,1.35,3,3,3h23c.55,0,1-.45,1-1s-.45-1-1-1h-23c-.55,0-1-.45-1-1v-37h60v37c0,.55-.45,1-1,1h-23c-.55,0-1,.45-1,1s.45,1,1,1h23c1.65,0,3-1.35,3-3V29c0-1.65-1.35-3-3-3ZM20,32v-3c0-.55.45-1,1-1h58c.55,0,1,.45,1,1v3H20Z"/>
    <circle cx="23" cy="30" r="1"/>
    <circle cx="27" cy="30" r="1"/>
    <circle cx="31" cy="30" r="1"/>
    <path d="M57,68c0-1.3-.84-2.4-2-2.82v-1.45c0-.39.23-.75.59-.9,5.11-2.23,8.41-7.26,8.41-12.83,0-3.84-1.53-7.43-4.3-10.09-2.77-2.66-6.39-4.05-10.26-3.9-7.2.28-13.09,6.13-13.43,13.33-.27,5.85,3.02,11.15,8.39,13.49.36.16.59.51.59.91v1.45c-1.16.41-2,1.51-2,2.82,0,1.46,1.06,2.68,2.44,2.94.73,1.69,2.26,2.86,4.07,3.03.16.02.33.02.49.02,2.03,0,3.83-1.21,4.6-3.06,1.37-.28,2.4-1.49,2.4-2.94ZM38.01,49.43c.28-6.16,5.34-11.18,11.51-11.42,3.3-.13,6.42,1.06,8.8,3.34,2.38,2.28,3.68,5.36,3.68,8.65,0,4.77-2.83,9.09-7.21,11-1.09.47-1.79,1.55-1.79,2.74v1.26h-2v-5.14c1.72-.45,3-2,3-3.86,0-2.21-1.79-4-4-4s-4,1.79-4,4c0,1.86,1.28,3.41,3,3.86v5.14h-2v-1.26c0-1.19-.71-2.26-1.79-2.74-4.6-2.01-7.42-6.55-7.19-11.57ZM50,58c-1.1,0-2-.9-2-2s.9-2,2-2,2,.9,2,2-.9,2-2,2ZM46,67h8c.55,0,1,.45,1,1s-.45,1-1,1h-8c-.55,0-1-.45-1-1s.45-1,1-1ZM49.7,71.99c-.74-.07-1.4-.43-1.89-.99h4.41c-.62.69-1.54,1.07-2.52.99Z"/>
    <path d="M72,50c0-.55-.45-1-1-1h-4c-.55,0-1,.45-1,1s.45,1,1,1h4c.55,0,1-.45,1-1Z"/>
    <path d="M67.69,38.63l-3.46,2c-.48.28-.64.89-.37,1.37.19.32.52.5.87.5.17,0,.34-.04.5-.13l3.46-2c.48-.28.64-.89.37-1.37-.28-.48-.89-.64-1.37-.37Z"/>
    <path d="M65.22,57.63c-.48-.28-1.09-.11-1.37.37-.28.48-.11,1.09.37,1.37l3.46,2c.16.09.33.13.5.13.35,0,.68-.18.87-.5.28-.48.11-1.09-.37-1.37l-3.46-2Z"/>
    <path d="M28,50c0,.55.45,1,1,1h4c.55,0,1-.45,1-1s-.45-1-1-1h-4c-.55,0-1,.45-1,1Z"/>
    <path d="M34.78,42.37c.16.09.33.13.5.13.35,0,.68-.18.87-.5.28-.48.11-1.09-.37-1.37l-3.46-2c-.48-.28-1.09-.11-1.37.37-.28.48-.11,1.09.37,1.37l3.46,2Z"/>
    <path d="M31.81,61.5c.17,0,.34-.04.5-.13l3.46-2c.48-.28.64-.89.37-1.37-.28-.48-.89-.64-1.37-.37l-3.46,2c-.48.28-.64.89-.37,1.37.19.32.52.5.87.5Z"/>
  </g>
</svg>