<?xml version="1.0" encoding="UTF-8"?>
<svg id="Layer_1" data-name="Layer 1" xmlns="http://www.w3.org/2000/svg" viewBox="0 0 100 100">
  <defs>
    <style>
      .cls-1 {
        fill: #ee3e24;
      }
    </style>
  </defs>
  <path class="cls-1" d="M34.94,40.01l25.7-7.34s3.64,14.76,0,28.67l-24.53-8.09-1.17-13.23Z"/>
  <g>
    <path d="M59.11,64c-.55,0-1,.45-1,1v12c0,1.65-1.35,3-3,3h-26c-1.65,0-3-1.35-3-3V23c0-1.65,1.35-3,3-3h1.38l1.17,2.34c.51,1.02,1.54,1.66,2.68,1.66h15.53c1.14,0,2.17-.64,2.68-1.66l1.17-2.34h1.38c1.65,0,3,1.35,3,3v6c0,.55.45,1,1,1s1-.45,1-1v-6c0-2.76-2.24-5-5-5h-26c-2.76,0-5,2.24-5,5v54c0,2.76,2.24,5,5,5h26c2.76,0,5-2.24,5-5v-12c0-.55-.45-1-1-1ZM51.49,20l-.72,1.45c-.17.34-.51.55-.89.55h-15.53c-.38,0-.72-.21-.89-.55l-.72-1.45h18.76Z"/>
    <path d="M43.11,78c.55,0,1-.45,1-1s-.45-1-1-1h-2c-.55,0-1,.45-1,1s.45,1,1,1h2Z"/>
    <path d="M63.56,30c-.9,0-1.73.4-2.3,1.1-.37.46-.57,1-.62,1.57l-25.7,7.34c-3.78.09-6.83,3.19-6.83,6.99s3.05,6.9,6.83,6.99l.17.05v10.96c0,2.76,2.24,5,5,5h4c.29,0,.56-.12.75-.34.19-.21.28-.5.24-.79l-1.55-12.42,17.09,4.88c.05.57.26,1.11.62,1.57.56.7,1.4,1.1,2.3,1.1,1.37,0,2.58-.96,2.88-2.29,2.21-9.76,2.21-19.66,0-29.43-.3-1.32-1.51-2.29-2.88-2.29ZM36.11,52.25v-10.49l24.78-7.08c1.6,8.19,1.6,16.46,0,24.65l-24.77-7.08ZM30.11,47c0-2.41,1.72-4.44,4-4.9v9.8c-2.28-.46-4-2.48-4-4.9ZM42.97,68h-2.87c-1.65,0-3-1.35-3-3v-10.39l4.35,1.24,1.52,12.15ZM64.49,61.27c-.09.42-.49.73-.93.73-.29,0-.56-.13-.74-.35-.1-.13-.27-.4-.19-.78,1.96-9.2,1.96-18.53,0-27.73-.08-.38.08-.65.19-.78.18-.23.45-.35.74-.35.44,0,.84.31.93.73,2.14,9.47,2.14,19.07,0,28.54Z"/>
    <path d="M69.95,37.02c-.54.12-.88.65-.77,1.19.61,2.85.92,5.8.92,8.79s-.31,5.95-.92,8.79c-.12.54.23,1.07.77,1.19.07.02.14.02.21.02.46,0,.88-.32.98-.79.64-2.98.96-6.08.96-9.21s-.32-6.23-.96-9.21c-.12-.54-.64-.88-1.19-.77Z"/>
    <path d="M74.4,34.76c-.13-.54-.68-.86-1.21-.73-.54.13-.86.68-.73,1.21.95,3.78,1.43,7.73,1.43,11.76s-.48,7.98-1.43,11.76c-.13.54.19,1.08.73,1.21.08.02.16.03.25.03.45,0,.85-.3.97-.76.99-3.94,1.5-8.06,1.5-12.24s-.5-8.31-1.5-12.24Z"/>
  </g>
</svg>