<?xml version="1.0" encoding="utf-8"?>
<!-- Generator: Adobe Illustrator 30.1.0, SVG Export Plug-In . SVG Version: 9.03 Build 0)  -->
<svg version="1.1" id="icons" xmlns="http://www.w3.org/2000/svg" xmlns:xlink="http://www.w3.org/1999/xlink" x="0px" y="0px"
	 viewBox="0 0 64 64" style="enable-background:new 0 0 64 64;" xml:space="preserve">
<g id="_5">
	<ellipse style="fill:none;stroke:#E5F2F2;stroke-width:0.75;stroke-miterlimit:10;" cx="32.22" cy="37.9" rx="17.93" ry="17.84"/>
	<ellipse style="fill:none;stroke:#E5F2F2;stroke-width:0.75;stroke-miterlimit:10;" cx="32.22" cy="37.9" rx="22.21" ry="22.1"/>
	<line style="fill:none;stroke:#E5F2F2;stroke-width:0.75;stroke-miterlimit:10;" x1="32.22" y1="20.06" x2="32.22" y2="25.26"/>
	<line style="fill:none;stroke:#E5F2F2;stroke-width:0.75;stroke-miterlimit:10;" x1="32.22" y1="50.54" x2="32.22" y2="55.74"/>
	<line style="fill:none;stroke:#E5F2F2;stroke-width:0.75;stroke-miterlimit:10;" x1="16.9" y1="37.9" x2="19.52" y2="37.9"/>
	<line style="fill:none;stroke:#E5F2F2;stroke-width:0.75;stroke-miterlimit:10;" x1="44.92" y1="37.9" x2="47.54" y2="37.9"/>
	<line style="fill:none;stroke:#E5F2F2;stroke-width:0.75;stroke-miterlimit:10;" x1="21.68" y1="27.41" x2="23.24" y2="28.96"/>
	<line style="fill:none;stroke:#E5F2F2;stroke-width:0.75;stroke-miterlimit:10;" x1="41.2" y1="46.83" x2="42.76" y2="48.39"/>
	<line style="fill:none;stroke:#E5F2F2;stroke-width:0.75;stroke-miterlimit:10;" x1="42.76" y1="27.41" x2="41.2" y2="28.96"/>
	<line style="fill:none;stroke:#E5F2F2;stroke-width:0.75;stroke-miterlimit:10;" x1="23.24" y1="46.83" x2="21.68" y2="48.39"/>
	<polyline style="fill:none;stroke:#E5F2F2;stroke-width:0.75;stroke-miterlimit:10;" points="29.47,15.97 29.47,11.7 34.97,11.7 
		34.97,15.97 	"/>
	<path style="fill:none;stroke:#E5F2F2;stroke-width:0.75;stroke-miterlimit:10;" d="M29.47,11.7h-2.75c-0.62,0-1.12-0.51-1.12-1.12
		V5.11C25.6,4.49,26.1,4,26.72,4h11c0.62,0,1.12,0.5,1.12,1.11v5.47c0,0.61-0.5,1.11-1.12,1.11h-2.75"/>
	<polyline style="fill:none;stroke:#E5F2F2;stroke-width:0.75;stroke-miterlimit:10;" points="15.89,22.8 13.16,20.09 16.3,16.97 
		19.28,19.94 	"/>
	<path style="fill:none;stroke:#E5F2F2;stroke-width:0.75;stroke-miterlimit:10;" d="M13.16,20.09l-0.78,0.77
		c-0.44,0.43-1.14,0.43-1.58,0L8.33,18.4c-0.44-0.44-0.44-1.14,0-1.58l4.68-4.66c0.44-0.44,1.15-0.44,1.58,0l2.47,2.46
		c0.44,0.43,0.44,1.14,0,1.57l-0.77,0.78"/>
	<polyline style="fill:none;stroke:#E5F2F2;stroke-width:0.75;stroke-miterlimit:10;" points="48.53,22.8 51.08,20.27 47.94,17.15 
		45.15,19.93 	"/>
	<path style="fill:none;stroke:#E5F2F2;stroke-width:0.75;stroke-miterlimit:10;" d="M51.08,20.27l0.78,0.77
		c0.44,0.43,1.14,0.43,1.58,0l2.23-2.22c0.44-0.44,0.44-1.14,0-1.58l-4.68-4.66c-0.44-0.44-1.15-0.44-1.58,0l-2.23,2.22
		c-0.44,0.43-0.44,1.14,0,1.57l0.77,0.78"/>
	<path style="fill:#E5F2F2;" d="M32.21,40.9c3.86,0,3.87-6,0-6S28.34,40.9,32.21,40.9L32.21,40.9z"/>
	<polyline style="fill:none;stroke:#E5F2F2;stroke-width:0.75;stroke-miterlimit:10;" points="32.21,31.2 32.21,37.9 38.54,44.15 	
		"/>
</g>
</svg>
