<?xml version="1.0" encoding="UTF-8"?>
<svg id="Layer_1" data-name="Layer 1" xmlns="http://www.w3.org/2000/svg" viewBox="0 0 100 100">
  <defs>
    <style>
      .cls-1 {
        fill: #ee3e24;
      }
    </style>
  </defs>
  <rect class="cls-1" x="47.02" y="49.17" width="6.26" height="9.25"/>
  <polygon class="cls-1" points="72.61 37.77 69.61 40.91 70.96 44.11 71.11 47.7 74.96 47.7 74.96 41.73 76.6 41.2 72.61 37.77"/>
  <polygon class="cls-1" points="26.5 39.25 23.5 42.38 24.85 45.59 25 49.17 28.86 49.17 28.86 43.2 30.5 42.68 26.5 39.25"/>
  <g>
    <path d="M79,26H21c-1.65,0-3,1.35-3,3v42c0,1.65,1.35,3,3,3h58c1.65,0,3-1.35,3-3V29c0-1.65-1.35-3-3-3ZM20,29c0-.55.45-1,1-1h58c.55,0,1,.45,1,1v3H20v-3ZM24,72v-12h4v12h-4ZM61.9,48.46c.29,2.33-.09,4.67-1.11,6.76-.57,1.16-.34,2.55.56,3.45l9.97,9.97c.77.77.85,1.99.19,2.72-.35.39-.84.62-1.36.63-.52.02-1.02-.18-1.39-.56l-10.09-10.09c-.57-.57-1.33-.87-2.11-.87-.45,0-.91.1-1.33.31-2.09,1.02-4.43,1.4-6.76,1.11-5.36-.68-9.72-5.05-10.37-10.39-.45-3.72.8-7.37,3.42-9.99,2.63-2.63,6.27-3.88,9.99-3.42,5.35.65,9.72,5.01,10.39,10.37ZM76,72h-2.51c.82-1.5.56-3.46-.75-4.77l-.74-.74v-14.49h4v20ZM56.1,62.59c.39-.19.86-.12,1.16.18l.74.74v8.49h-4v-8.6c.72-.22,1.42-.48,2.1-.81ZM60,65.51l6.49,6.49h-6.49v-6.49ZM42,61.46c1.21.85,2.56,1.52,4,1.96v8.59h-4v-10.54ZM48,72v-8.15c.07.01.14.03.21.04,1.27.16,2.54.14,3.79-.04v8.15h-4ZM80,71c0,.55-.45,1-1,1h-1v-21c0-.55-.45-1-1-1h-6c-.55,0-1,.45-1,1v13.49l-4-4v-5.49c0-.55-.45-1-1-1s-1,.45-1,1v3.49l-1.23-1.23c-.3-.3-.37-.76-.18-1.16,1.19-2.44,1.64-5.17,1.3-7.89-.39-3.06-1.81-5.83-3.89-7.97v-.24h4v5.02c0,.55.45,1,1,1s1-.45,1-1v-6.02c0-.55-.45-1-1-1h-6c-.41,0-.76.25-.91.6-1.85-1.32-4.01-2.21-6.34-2.49-4.34-.53-8.58.93-11.65,3.99-3.07,3.06-4.52,7.31-3.99,11.65.37,3.07,1.8,5.87,3.89,8.01v12.24h-4v-17c0-.55-.45-1-1-1s-1,.45-1,1v17h-4v-13c0-.55-.45-1-1-1h-6c-.55,0-1,.45-1,1v13h-1c-.55,0-1-.45-1-1v-37h60v37Z"/>
    <circle cx="23" cy="30" r="1"/>
    <circle cx="27" cy="30" r="1"/>
    <circle cx="31" cy="30" r="1"/>
    <path d="M40,50c0,5.51,4.49,10,10,10s10-4.49,10-10-4.49-10-10-10-10,4.49-10,10ZM48,57.74v-7.74h4v7.74c-.64.17-1.31.26-2,.26s-1.36-.1-2-.26ZM58,50c0,2.95-1.61,5.53-4,6.92v-7.92c0-.55-.45-1-1-1h-6c-.55,0-1,.45-1,1v7.92c-2.39-1.39-4-3.96-4-6.92,0-4.41,3.59-8,8-8s8,3.59,8,8Z"/>
    <path d="M23,44h1v5c0,.55.45,1,1,1h4c.55,0,1-.45,1-1v-5h1c.4,0,.77-.24.92-.62.15-.37.07-.8-.22-1.09l-4-4c-.39-.39-1.02-.39-1.41,0l-4,4c-.29.29-.37.72-.22,1.09.15.37.52.62.92.62ZM27,40.41l1.65,1.65c-.38.14-.65.51-.65.94v5h-2v-5c0-.43-.27-.79-.65-.94l1.65-1.65Z"/>
    <path d="M69,42h1v5c0,.55.45,1,1,1h4c.55,0,1-.45,1-1v-5h1c.4,0,.77-.24.92-.62.15-.37.07-.8-.22-1.09l-4-4c-.39-.39-1.02-.39-1.41,0l-4,4c-.29.29-.37.72-.22,1.09.15.37.52.62.92.62ZM73,38.41l1.65,1.65c-.38.14-.65.51-.65.94v5h-2v-5c0-.43-.27-.79-.65-.94l1.65-1.65Z"/>
  </g>
</svg>