<?xml version="1.0" encoding="UTF-8"?>
<svg id="Layer_1" data-name="Layer 1" xmlns="http://www.w3.org/2000/svg" viewBox="0 0 100 100">
  <defs>
    <style>
      .cls-1 {
        fill: #ee3e24;
      }
    </style>
  </defs>
  <polygon class="cls-1" points="28 18.8 66 18.8 65 24 27 24 28 18.8"/>
  <polygon class="cls-1" points="69.08 73 72.99 73 72.99 80 71 82 69.08 80 69.08 73"/>
  <path class="cls-1" d="M35,45h14.01v12h-14.01s-.07-12,0-12Z"/>
  <polygon class="cls-1" points="60 33 58 38.99 42 38.99 40.2 33 43.55 34.89 45.55 30.64 48 33 50.1 28.06 52 33 55.03 30.64 56 33.52 60 33"/>
  <g>
    <path d="M65,80h-32c-.55,0-1-.54-1-1.21V27c0-.55-.45-1-1-1s-1,.45-1,1v51.79c0,1.77,1.35,3.21,3,3.21h32c.55,0,1-.45,1-1s-.45-1-1-1Z"/>
    <path d="M42,40h16c.45,0,.84-.3.96-.73l2-7c.11-.38-.02-.79-.32-1.04-.31-.25-.73-.3-1.09-.12l-2.88,1.44-.7-2.79c-.09-.37-.39-.66-.77-.74-.38-.08-.77.07-1,.38l-1.79,2.39-1.45-5.06c-.12-.43-.52-.73-.96-.73s-.84.3-.96.73l-1.45,5.06-1.79-2.39c-.23-.31-.62-.46-1-.38-.38.08-.68.36-.77.74l-.7,2.79-2.88-1.44c-.35-.18-.78-.13-1.09.12-.31.25-.43.66-.32,1.04l2,7c.12.43.52.73.96.73ZM43.55,34.89c.27.14.59.14.87.01.28-.13.48-.37.55-.67l.49-1.96,1.74,2.32c.23.3.61.45.98.38.37-.07.68-.34.78-.71l1.04-3.63,1.04,3.63c.1.36.41.64.78.71.37.07.75-.08.98-.38l1.74-2.32.49,1.96c.07.29.28.54.55.67.28.13.59.12.87-.01l1.97-.98-1.17,4.09h-14.49l-1.17-4.09,1.97.98Z"/>
    <path d="M34,45v12c0,.55.45,1,1,1h14c.55,0,1-.45,1-1v-12c0-.55-.45-1-1-1h-14c-.55,0-1,.45-1,1ZM36,46h12v10h-12v-10Z"/>
    <path d="M65,44h-10c-.55,0-1,.45-1,1s.45,1,1,1h10c.55,0,1-.45,1-1s-.45-1-1-1Z"/>
    <path d="M65,48h-12c-.55,0-1,.45-1,1s.45,1,1,1h12c.55,0,1-.45,1-1s-.45-1-1-1Z"/>
    <path d="M65,52h-12c-.55,0-1,.45-1,1s.45,1,1,1h12c.55,0,1-.45,1-1s-.45-1-1-1Z"/>
    <path d="M65,56h-12c-.55,0-1,.45-1,1s.45,1,1,1h12c.55,0,1-.45,1-1s-.45-1-1-1Z"/>
    <path d="M65,60h-26c-.55,0-1,.45-1,1s.45,1,1,1h26c.55,0,1-.45,1-1s-.45-1-1-1Z"/>
    <path d="M65,64h-18c-.55,0-1,.45-1,1s.45,1,1,1h18c.55,0,1-.45,1-1s-.45-1-1-1Z"/>
    <path d="M35,66h8c.55,0,1-.45,1-1s-.45-1-1-1h-8c-.55,0-1,.45-1,1s.45,1,1,1Z"/>
    <path d="M65,68h-4c-.55,0-1,.45-1,1s.45,1,1,1h4c.55,0,1-.45,1-1s-.45-1-1-1Z"/>
    <path d="M35,70h22c.55,0,1-.45,1-1s-.45-1-1-1h-22c-.55,0-1,.45-1,1s.45,1,1,1Z"/>
    <path d="M65,72h-12c-.55,0-1,.45-1,1s.45,1,1,1h12c.55,0,1-.45,1-1s-.45-1-1-1Z"/>
    <path d="M35,74h14c.55,0,1-.45,1-1s-.45-1-1-1h-14c-.55,0-1,.45-1,1s.45,1,1,1Z"/>
    <path d="M35,78h26c.55,0,1-.45,1-1s-.45-1-1-1h-26c-.55,0-1,.45-1,1s.45,1,1,1Z"/>
    <path d="M73,72h-3V21c0-1.65-1.35-3-3-3H29c-1.65,0-3,1.35-3,3v2c0,.55.45,1,1,1h38c.55,0,1-.45,1-1v-2c0-.55.45-1,1-1s1,.45,1,1v58c0,1.65,1.35,3,3,3s3-1.35,3-3v-6c0-.55-.45-1-1-1ZM64,21v1H28v-1c0-.55.45-1,1-1h35.17c-.11.31-.17.65-.17,1ZM72,79c0,.55-.45,1-1,1s-1-.45-1-1v-5h2v5Z"/>
  </g>
</svg>