<?xml version="1.0" encoding="UTF-8"?>
<svg id="Layer_1" data-name="Layer 1" xmlns="http://www.w3.org/2000/svg" viewBox="0 0 100 100">
  <defs>
    <style>
      .cls-1 {
        fill: #ee3e24;
      }
    </style>
  </defs>
  <polygon class="cls-1" points="56 50.77 56 47.15 46.63 37.23 49 37.65 52 36 57 35.62 57 32 49 29.51 48.66 26.87 43 28.76 40.75 32.9 42 37.23 43.61 40 43.91 50.77 56 50.77"/>
  <rect class="cls-1" x="42.31" y="51.48" width="15.45" height="3.06"/>
  <rect class="cls-1" x="39.33" y="55.43" width="21.34" height="3.13"/>
  <polygon class="cls-1" points="71 27.3 68 30.44 69.35 33.64 69.5 37.23 73.35 37.23 73.35 31.26 74.99 30.73 71 27.3"/>
  <polygon class="cls-1" points="28.59 37.23 25.59 40.36 26.94 43.57 27.09 47.15 30.94 47.15 30.94 41.18 32.58 40.66 28.59 37.23"/>
  <g>
    <path d="M62,57c0-1.65-1.35-3-3-3v-1c0-1.3-.84-2.4-2-2.82v-2.36c0-.8-.31-1.56-.88-2.12l-7.06-7.06c1.39-.03,2.74-1.09,3.34-1.64h4.6c.55,0,1-.45,1-1v-4c0-.46-.31-.86-.76-.97l-7.24-1.81v-2.22c0-.55-.45-1-1-1-5.21,0-9,3.36-9,8,0,2.07.8,4.1,2.26,5.73.48.53.74,1.27.74,2.09v8.37c-1.16.41-2,1.51-2,2.82v1c-1.65,0-3,1.35-3,3s1.35,3,3,3h5v13c0,.55.45,1,1,1h6c.55,0,1-.45,1-1v-13h5c1.65,0,3-1.35,3-3ZM42,34c0-3.24,2.42-5.58,6-5.95v1.95c0,.46.31.86.76.97l7.24,1.81v2.22h-4c-.27,0-.53.11-.72.31-.42.44-1.53,1.34-2.28,1.34-.91,0-1.83-.06-2.44-.47-.43-.29-1-.21-1.33.19-.33.4-.3.98.06,1.34l9.41,9.41c.19.19.29.44.29.71v2.17h-10v-8.18c0-1.31-.44-2.53-1.25-3.43-1.13-1.25-1.75-2.81-1.75-4.39ZM43,53c0-.55.45-1,1-1h12c.55,0,1,.45,1,1v1h-14v-1ZM40,57c0-.55.45-1,1-1h18c.55,0,1,.45,1,1s-.45,1-1,1h-18c-.55,0-1-.45-1-1ZM52,72h-4v-12h4v12Z"/>
    <path d="M25,58h-6c-.55,0-1,.45-1,1v14c0,.55.45,1,1,1h6c.55,0,1-.45,1-1v-14c0-.55-.45-1-1-1ZM24,72h-4v-12h4v12Z"/>
    <path d="M67,40h-6c-.55,0-1,.45-1,1v10c0,.55.45,1,1,1s1-.45,1-1v-9h4v30h-4v-9c0-.55-.45-1-1-1s-1,.45-1,1v10c0,.55.45,1,1,1h6c.55,0,1-.45,1-1v-32c0-.55-.45-1-1-1Z"/>
    <path d="M81,50h-6c-.55,0-1,.45-1,1v22c0,.55.45,1,1,1h6c.55,0,1-.45,1-1v-22c0-.55-.45-1-1-1ZM80,72h-4v-20h4v20Z"/>
    <path d="M39,62c-.55,0-1,.45-1,1v9h-4v-20h5c.55,0,1-.45,1-1s-.45-1-1-1h-6c-.55,0-1,.45-1,1v22c0,.55.45,1,1,1h6c.55,0,1-.45,1-1v-10c0-.55-.45-1-1-1Z"/>
    <path d="M74,32h1c.4,0,.77-.24.92-.62.16-.37.07-.8-.22-1.09l-4-4c-.39-.39-1.02-.39-1.41,0l-4,4c-.29.29-.37.72-.22,1.09.15.37.52.62.92.62h1v5c0,.55.45,1,1,1h4c.55,0,1-.45,1-1v-5ZM72,31v5h-2v-5c0-.43-.27-.79-.65-.94l1.65-1.65,1.65,1.65c-.38.14-.65.51-.65.94Z"/>
    <path d="M32,42h1c.4,0,.77-.24.92-.62.16-.37.07-.8-.22-1.09l-4-4c-.39-.39-1.02-.39-1.41,0l-4,4c-.29.29-.37.72-.22,1.09.15.37.52.62.92.62h1v5c0,.55.45,1,1,1h4c.55,0,1-.45,1-1v-5ZM30,41v5h-2v-5c0-.43-.27-.79-.65-.94l1.65-1.65,1.65,1.65c-.38.14-.65.51-.65.94Z"/>
  </g>
</svg>