<?xml version="1.0" encoding="UTF-8"?>
<svg id="Layer_1" data-name="Layer 1" xmlns="http://www.w3.org/2000/svg" viewBox="0 0 100 100">
  <defs>
    <style>
      .cls-1 {
        fill: #ee3e24;
      }
    </style>
  </defs>
  <circle class="cls-1" cx="50.36" cy="26" r="3"/>
  <circle class="cls-1" cx="74" cy="56" r="3"/>
  <circle class="cls-1" cx="54" cy="74" r="3"/>
  <circle class="cls-1" cx="26" cy="50.44" r="3"/>
  <g>
    <path d="M61.04,41.38c-.34-.44-.97-.51-1.4-.17-.44.34-.51.97-.17,1.4,1.66,2.13,2.54,4.68,2.54,7.38,0,6.62-5.38,12-12,12s-12-5.38-12-12,5.38-12,12-12c2.3,0,4.53.65,6.46,1.89.46.3,1.08.16,1.38-.3.3-.46.16-1.08-.3-1.38-2.25-1.44-4.86-2.2-7.54-2.2-7.72,0-14,6.28-14,14s6.28,14,14,14,14-6.28,14-14c0-3.16-1.03-6.13-2.96-8.62Z"/>
    <path d="M65.24,61c-.33-.33-.38-.86-.11-1.27,1.09-1.68,1.86-3.49,2.33-5.38l2.57,1.29c-.01.12-.04.24-.04.36,0,2.21,1.79,4,4,4s4-1.79,4-4-1.79-4-4-4c-1.36,0-2.57.69-3.29,1.74l-2.86-1.43c.19-1.45.2-2.94.03-4.44-.32-2.75-1.3-5.33-2.75-7.57l2.27-2.27c1.54,1.23,3.49,1.98,5.61,1.98,4.96,0,9-4.04,9-9s-4.04-9-9-9-9,4.04-9,9c0,2.12.74,4.07,1.98,5.61l-2.04,2.04c-2.86-3.49-6.98-5.93-11.62-6.51-.44-.05-.88-.09-1.32-.11v-2.17c1.72-.45,3-2,3-3.86,0-2.21-1.79-4-4-4s-4,1.79-4,4c0,1.86,1.28,3.41,3,3.86v2.17c-4.08.22-7.93,1.8-11,4.55l-3.97-3.97c1.23-1.54,1.98-3.49,1.98-5.61,0-4.96-4.04-9-9-9s-9,4.04-9,9,4.04,9,9,9c2.12,0,4.07-.74,5.61-1.98l3.97,3.97c-2.75,3.07-4.33,6.92-4.55,11h-2.17c-.45-1.72-2-3-3.86-3-2.21,0-4,1.79-4,4s1.79,4,4,4c1.86,0,3.41-1.28,3.86-3h2.17c.02.44.06.88.11,1.32.4,3.18,1.67,6.11,3.56,8.57l-3.09,3.09c-1.54-1.23-3.49-1.98-5.61-1.98-4.96,0-9,4.04-9,9s4.04,9,9,9,9-4.04,9-9c0-2.12-.74-4.07-1.98-5.61l2.98-2.98c2.83,2.96,6.64,4.98,10.86,5.47,1.13.13,2.24.15,3.34.08l.67,2.67c-1.12.71-1.88,1.95-1.88,3.38,0,2.21,1.79,4,4,4s4-1.79,4-4-1.79-4-4-4c-.07,0-.14.02-.21.02l-.58-2.32c2.3-.42,4.51-1.27,6.52-2.57.41-.27.94-.22,1.27.11l15.88,15.88c.57.57,1.33.88,2.12.88.08,0,.16,0,.24,0,.88-.07,1.68-.53,2.2-1.25.84-1.17.67-2.87-.4-3.94l-15.8-15.8ZM74,54c1.1,0,2,.9,2,2s-.9,2-2,2-2-.9-2-2,.9-2,2-2ZM73,24c3.86,0,7,3.14,7,7s-3.14,7-7,7-7-3.14-7-7,3.14-7,7-7ZM27,78c-3.86,0-7-3.14-7-7s3.14-7,7-7,7,3.14,7,7-3.14,7-7,7ZM56,74c0,1.1-.9,2-2,2s-2-.9-2-2,.9-2,2-2,2,.9,2,2ZM48,26c0-1.1.9-2,2-2s2,.9,2,2-.9,2-2,2-2-.9-2-2ZM27,34c-3.86,0-7-3.14-7-7s3.14-7,7-7,7,3.14,7,7-3.14,7-7,7ZM26,52c-1.1,0-2-.9-2-2s.9-2,2-2,2,.9,2,2-.9,2-2,2ZM79.82,79.57c-.18.25-.44.4-.74.42-.3.03-.58-.08-.79-.29l-15.88-15.88c-.58-.58-1.34-.88-2.11-.88-.57,0-1.15.16-1.66.5-3.15,2.03-6.79,2.88-10.55,2.44-7.19-.84-13.07-6.65-13.97-13.82-.62-4.99,1.04-9.86,4.56-13.38,3.52-3.52,8.4-5.18,13.38-4.56,7.17.9,12.98,6.77,13.82,13.97.44,3.76-.41,7.4-2.44,10.55-.78,1.21-.63,2.76.38,3.77l15.8,15.8c.38.38.46.98.19,1.36Z"/>
    <path d="M42,54v1.79c0,1.15.68,2.22,1.73,2.72,2.08.99,4.18,1.49,6.27,1.49s4.19-.5,6.27-1.49c1.05-.5,1.73-1.57,1.73-2.72v-1.79c0-3.34-2.06-6.21-4.98-7.4.6-.7.98-1.6.98-2.6,0-2.21-1.79-4-4-4s-4,1.79-4,4c0,1,.38,1.89.98,2.6-2.92,1.19-4.98,4.06-4.98,7.4ZM48,44c0-1.1.9-2,2-2s2,.9,2,2-.9,2-2,2-2-.9-2-2ZM50,48c3.31,0,6,2.69,6,6v1.79c0,.39-.23.75-.59.92-3.64,1.74-7.18,1.74-10.82,0-.36-.17-.59-.53-.59-.92v-1.79c0-3.31,2.69-6,6-6Z"/>
    <path d="M69.64,36.37c1.12.42,2.24.63,3.36.63s2.25-.21,3.36-.63c.98-.37,1.64-1.32,1.64-2.37,0-1.85-1.02-3.45-2.52-4.32.33-.48.52-1.06.52-1.68,0-1.65-1.35-3-3-3s-3,1.35-3,3c0,.62.19,1.2.52,1.68-1.5.86-2.52,2.47-2.52,4.32,0,1.05.66,2,1.64,2.37ZM72,28c0-.55.45-1,1-1s1,.45,1,1-.45,1-1,1-1-.45-1-1ZM73,31c1.65,0,3,1.35,3,3,0,.22-.14.42-.34.5h0c-1.79.67-3.53.67-5.32,0-.2-.08-.34-.28-.34-.5,0-1.65,1.35-3,3-3Z"/>
    <path d="M29.48,69.68c.33-.48.52-1.06.52-1.68,0-1.65-1.35-3-3-3s-3,1.35-3,3c0,.62.19,1.2.52,1.68-1.5.86-2.52,2.47-2.52,4.32,0,1.05.66,2,1.64,2.37,1.12.42,2.24.63,3.36.63s2.25-.21,3.36-.63c.98-.37,1.64-1.32,1.64-2.37,0-1.85-1.02-3.45-2.52-4.32ZM26,68c0-.55.45-1,1-1s1,.45,1,1-.45,1-1,1-1-.45-1-1ZM29.66,74.5h0c-1.79.67-3.53.67-5.32,0-.2-.08-.34-.28-.34-.5,0-1.65,1.35-3,3-3s3,1.35,3,3c0,.22-.14.42-.34.5Z"/>
    <path d="M29.48,25.68c.33-.48.52-1.06.52-1.68,0-1.65-1.35-3-3-3s-3,1.35-3,3c0,.62.19,1.2.52,1.68-1.5.86-2.52,2.47-2.52,4.32,0,1.05.66,2,1.64,2.37,1.12.42,2.24.63,3.36.63s2.25-.21,3.36-.63c.98-.37,1.64-1.32,1.64-2.37,0-1.85-1.02-3.45-2.52-4.32ZM26,24c0-.55.45-1,1-1s1,.45,1,1-.45,1-1,1-1-.45-1-1ZM29.66,30.5h0c-1.79.67-3.53.67-5.32,0-.2-.08-.34-.28-.34-.5,0-1.65,1.35-3,3-3s3,1.35,3,3c0,.22-.14.42-.34.5Z"/>
  </g>
</svg>